<?xml version="1.0" standalone="no"?>
<!DOCTYPE svg PUBLIC "-//W3C//DTD SVG 20010904//EN"
 "http://www.w3.org/TR/2001/REC-SVG-20010904/DTD/svg10.dtd">
<svg version="1.0" xmlns="http://www.w3.org/2000/svg"
 width="120.000000pt" height="120.000000pt" viewBox="0 0 120.000000 120.000000"
 preserveAspectRatio="xMidYMid meet">
<metadata>
Created by potrace 1.11, written by Peter Selinger 2001-2013
</metadata>
<g transform="translate(0.000000,120.000000) scale(0.100000,-0.100000)"
fill="#000000" stroke="none">
<path d="M465 1186 c-109 -26 -231 -98 -307 -181 -167 -180 -204 -455 -92
-678 74 -148 222 -265 385 -307 274 -71 570 68 689 322 47 101 59 161 55 278
-4 164 -60 294 -174 407 -76 75 -207 145 -305 162 -77 14 -187 13 -251 -3z
m243 -20 c205 -39 372 -187 436 -387 47 -146 36 -298 -29 -431 -174 -352 -639
-430 -917 -154 -281 280 -205 742 152 922 100 51 247 71 358 50z"/>
<path d="M520 1093 c29 -10 39 -33 29 -66 -8 -30 -7 -30 6 -13 32 42 14 87
-33 85 -14 0 -14 -2 -2 -6z"/>
<path d="M692 1095 c4 -4 0 -25 -7 -46 -8 -22 -10 -37 -5 -34 6 3 10 13 10 21
0 8 4 14 9 14 5 0 8 -11 6 -25 -3 -30 6 -32 30 -5 24 27 31 18 10 -13 -15 -23
-14 -25 2 -31 9 -4 14 -4 10 0 -4 4 4 27 18 51 29 49 21 55 -24 17 l-31 -26 0
35 c0 24 -5 37 -17 41 -10 4 -14 4 -11 1z"/>
<path d="M486 1050 c4 -25 1 -46 -6 -55 -10 -12 -10 -15 1 -15 18 0 49 20 32
20 -9 0 -13 16 -13 45 0 25 -4 45 -10 45 -5 0 -7 -17 -4 -40z"/>
<path d="M655 1079 c-11 -16 -1 -19 13 -3 7 8 8 14 3 14 -5 0 -13 -5 -16 -11z"/>
<path d="M436 1072 c6 -4 13 -14 16 -22 3 -11 6 -9 10 6 4 15 0 20 -16 22 -11
0 -16 -2 -10 -6z"/>
<path d="M425 1027 c4 -40 3 -40 -46 -6 -26 18 -27 18 -44 -1 -9 -10 -15 -25
-12 -32 4 -9 6 -7 6 4 2 31 20 29 36 -4 8 -18 12 -23 9 -10 -7 27 0 28 37 1
l29 -20 -1 23 c-1 13 -5 37 -10 53 -8 28 -8 27 -4 -8z"/>
<path d="M845 1020 c-17 -8 -16 -9 9 -7 32 2 44 -23 21 -46 -16 -16 -29 -57
-18 -57 5 0 19 20 33 45 24 44 24 45 5 59 -23 18 -23 18 -50 6z"/>
<path d="M638 1003 c7 -3 16 -2 19 1 4 3 -2 6 -13 5 -11 0 -14 -3 -6 -6z"/>
<path d="M835 970 c-3 -5 -1 -10 4 -10 6 0 11 5 11 10 0 6 -2 10 -4 10 -3 0
-8 -4 -11 -10z"/>
<path d="M244 948 c-15 -18 -15 -20 -1 -9 15 12 17 11 17 -5 0 -14 3 -15 9 -6
6 10 10 10 21 -3 11 -13 8 -19 -11 -17 -3 1 -6 -6 -6 -14 0 -12 3 -12 17 1 12
11 19 12 28 3 6 -6 15 -9 19 -5 3 4 4 8 2 10 -2 1 -20 17 -40 35 l-35 32 -20
-22z"/>
<path d="M784 958 c10 -6 22 -6 26 -2 5 5 -3 10 -18 11 -22 1 -24 0 -8 -9z"/>
<path d="M930 950 c-9 -6 -10 -10 -3 -10 6 0 15 5 18 10 8 12 4 12 -15 0z"/>
<path d="M361 933 c-7 -8 -11 -16 -8 -19 2 -2 10 2 17 11 17 20 9 27 -9 8z"/>
<path d="M970 940 c0 -16 -61 -49 -79 -43 -11 4 -8 -3 8 -20 26 -29 42 -38 21
-12 -7 9 -11 16 -9 18 2 1 21 11 42 21 38 20 45 30 27 41 -5 3 -10 1 -10 -5z"/>
<path d="M231 904 c0 -11 3 -14 6 -6 3 7 2 16 -1 19 -3 4 -6 -2 -5 -13z"/>
<path d="M1003 903 c9 -15 -20 -51 -46 -56 l-22 -4 23 -2 c48 -2 84 44 50 65
-6 4 -8 3 -5 -3z"/>
<path d="M170 863 c0 -7 7 -18 15 -27 8 -8 12 -22 9 -30 -7 -19 -9 -19 -35 -6
-36 20 -19 -7 23 -35 l42 -28 -16 25 c-19 29 -8 62 14 40 14 -14 38 -16 38 -2
0 6 -5 10 -12 10 -7 0 -27 14 -45 32 -18 18 -33 27 -33 21z"/>
<path d="M272 842 c-11 -25 -11 -25 4 -10 9 9 15 21 13 27 -2 6 -10 -2 -17
-17z"/>
<path d="M468 831 c-48 -38 -93 -163 -63 -175 12 -4 13 -11 4 -33 -23 -61 -88
-97 -103 -57 -9 24 -7 31 5 12 16 -28 48 -22 55 9 11 42 -33 66 -77 43 -19
-11 -26 -54 -11 -77 10 -15 57 -33 87 -33 30 0 71 49 86 103 7 23 20 49 30 58
12 11 15 20 8 28 -5 6 -1 4 8 -4 16 -14 15 -16 -8 -41 -16 -18 -20 -28 -11
-31 6 -3 12 -10 12 -16 0 -7 9 -18 20 -25 26 -16 60 0 60 28 0 11 5 20 11 20
8 0 8 4 -1 15 -10 12 -6 20 21 47 25 26 30 28 20 9 -16 -28 -16 -106 -1 -145
6 -16 8 -44 4 -62 -5 -29 -3 -35 17 -42 19 -7 20 -10 5 -15 -14 -6 -12 -11 16
-36 18 -15 44 -32 58 -36 39 -12 99 -7 130 12 46 27 68 104 40 138 -8 9 -6 18
5 29 18 18 17 19 -44 16 -29 -1 -41 2 -37 9 4 6 13 11 19 11 13 0 87 82 87 96
0 4 -11 -3 -25 -16 -14 -13 -25 -19 -25 -12 0 20 -31 42 -59 42 -66 0 -106
-75 -61 -115 12 -11 18 -25 15 -34 -5 -12 -3 -13 6 -4 21 21 68 -9 93 -59 17
-32 4 -88 -19 -88 -7 0 -15 -4 -17 -10 -4 -12 -74 -16 -104 -6 -12 4 -27 19
-33 35 -33 79 79 136 119 60 15 -28 -13 -73 -41 -66 -10 3 -17 1 -13 -4 3 -5
16 -9 29 -9 31 0 58 39 53 77 -6 57 -103 69 -154 18 -20 -20 -24 -21 -25 -7 0
14 -2 14 -8 -2 -5 -13 -10 -16 -15 -8 -10 16 5 41 49 80 39 36 43 64 10 70
-20 4 -20 3 -1 -11 22 -16 14 -37 -14 -37 -30 0 -45 61 -30 117 7 25 19 47 27
50 11 4 10 8 -4 19 -25 19 -33 17 -34 -8 0 -13 -3 -18 -5 -11 -3 6 -22 -6 -46
-30 -44 -45 -32 -22 15 30 l29 31 -28 36 c-32 39 -39 41 -25 4 7 -20 5 -33
-11 -59 -33 -55 -48 -55 -76 -3 -10 19 -8 20 17 16 19 -2 30 1 34 11 7 18 -2
57 -13 57 -5 0 -15 2 -22 5 -8 3 -26 -3 -40 -14z m57 -25 c0 -11 -6 -21 -13
-24 -7 -2 -10 2 -6 11 3 8 1 18 -5 22 -6 3 -14 -1 -17 -9 -3 -9 -10 -13 -16
-10 -15 10 13 35 36 32 13 -2 21 -10 21 -22z m-78 -133 c-3 -10 -5 -4 -5 12 0
17 2 24 5 18 2 -7 2 -21 0 -30z m393 -8 c11 -28 5 -51 -15 -59 -17 -6 -30 10
-15 19 15 9 12 25 -4 25 -18 0 -27 -35 -13 -49 16 -16 1 -24 -22 -11 -13 7
-21 21 -21 37 0 58 71 88 90 38z m-282 -24 c5 -14 -16 -41 -31 -41 -6 0 -2 7
9 16 10 8 14 13 7 10 -6 -4 -16 2 -22 11 -7 13 -10 14 -11 4 0 -8 -3 -12 -6
-8 -3 3 -3 10 0 15 8 13 49 8 54 -7z m-134 -43 c-22 -44 -44 -68 -61 -68 -8 0
-1 11 16 25 16 15 36 42 43 61 7 20 14 31 16 25 2 -5 -4 -25 -14 -43z m-72 10
c12 -19 10 -28 -7 -28 -9 0 -18 6 -21 14 -7 19 -34 9 -35 -13 0 -9 -3 -11 -5
-4 -3 7 0 21 5 32 12 22 48 21 63 -1z"/>
<path d="M1018 833 c7 -3 16 -2 19 1 4 3 -2 6 -13 5 -11 0 -14 -3 -6 -6z"/>
<path d="M1021 799 c-13 -5 -32 -7 -42 -4 -14 5 -16 1 -12 -14 3 -11 12 -26
21 -33 13 -12 14 -10 3 10 -10 19 -9 22 7 22 10 0 24 -6 31 -12 10 -11 11 -9
5 6 -6 16 -4 18 18 14 19 -4 25 -1 21 9 -6 15 -18 16 -52 2z"/>
<path d="M1075 760 c-3 -5 -1 -10 4 -10 6 0 11 5 11 10 0 6 -2 10 -4 10 -3 0
-8 -4 -11 -10z"/>
<path d="M140 750 c0 -5 5 -10 11 -10 5 0 7 5 4 10 -3 6 -8 10 -11 10 -2 0 -4
-4 -4 -10z"/>
<path d="M211 714 c0 -11 3 -14 6 -6 3 7 2 16 -1 19 -3 4 -6 -2 -5 -13z"/>
<path d="M118 649 c-27 -15 -23 -57 7 -71 19 -8 28 -8 40 2 21 18 19 57 -4 70
-23 12 -22 12 -43 -1z"/>
<path d="M1026 644 c-9 -8 -16 -22 -16 -29 0 -17 27 -45 43 -45 37 1 54 44 29
73 -19 21 -36 22 -56 1z"/>
<path d="M740 455 c-7 -9 -10 -18 -6 -22 3 -3 6 -1 6 5 0 7 10 11 21 9 12 -1
24 4 26 11 7 17 -32 15 -47 -3z"/>
<path d="M975 380 c-3 -5 -3 -14 0 -20 3 -5 0 -10 -8 -10 -7 0 -14 -7 -14 -15
0 -8 4 -12 9 -9 5 3 17 -5 28 -18 22 -26 26 -18 8 15 -7 12 -13 30 -15 40 -3
17 -1 17 23 -2 26 -21 44 -20 44 1 0 6 -3 8 -6 5 -4 -3 -16 0 -28 8 -24 18
-33 19 -41 5z"/>
<path d="M240 350 c13 -8 10 -14 -15 -35 l-30 -24 26 1 c17 2 25 7 22 15 -3 7
0 13 6 13 6 0 11 9 11 20 0 12 -7 20 -17 20 -15 0 -16 -2 -3 -10z"/>
<path d="M914 308 c-4 -6 -3 -8 3 -5 15 9 46 -29 39 -48 -7 -20 -24 -11 -36
19 -8 20 -9 20 -9 1 -1 -34 16 -52 36 -39 24 15 28 48 8 68 -19 19 -31 20 -41
4z"/>
<path d="M256 285 c-19 -30 -21 -41 -3 -26 8 6 16 8 20 5 9 -9 47 6 47 19 0 8
-3 8 -12 -1 -7 -7 -18 -12 -25 -12 -11 0 -11 5 -3 20 15 29 -5 25 -24 -5z"/>
<path d="M865 260 c-5 -9 -4 -15 3 -18 7 -2 12 -12 12 -22 0 -27 15 -33 31
-12 7 9 9 13 4 9 -5 -4 -16 7 -26 24 -12 24 -18 28 -24 19z"/>
<path d="M317 235 c-18 -26 -16 -45 6 -45 8 0 7 3 -2 9 -11 7 -8 12 13 26 14
9 23 21 20 26 -8 14 -18 10 -37 -16z"/>
<path d="M395 242 c-6 -4 -20 -21 -32 -38 -21 -31 -21 -44 0 -44 6 0 8 3 4 6
-3 4 6 22 20 41 25 32 29 50 8 35z"/>
<path d="M434 195 c-38 -47 -42 -73 -5 -36 12 12 28 21 37 21 14 0 14 -2 0
-22 -18 -25 -20 -38 -8 -38 9 0 32 44 32 62 0 6 -11 8 -24 6 -23 -5 -24 -4 -9
18 8 13 22 25 31 27 16 4 16 5 0 6 -9 0 -33 -19 -54 -44z"/>
<path d="M813 224 c-4 -11 2 -23 17 -34 22 -17 22 -18 4 -28 -10 -6 -14 -12
-8 -12 6 0 18 7 25 16 11 14 9 19 -11 35 -21 16 -23 20 -10 29 11 7 11 10 2
10 -7 0 -15 -7 -19 -16z"/>
<path d="M703 164 c0 -14 -8 -33 -17 -42 -15 -15 -16 -14 -16 9 0 14 3 29 8
35 4 5 -1 1 -10 -9 -33 -35 -13 -74 22 -42 14 13 19 13 23 3 8 -24 14 -3 9 35
-5 42 -19 51 -19 11z"/>
<path d="M750 181 c0 -10 31 -31 45 -31 11 0 -5 20 -26 30 -12 7 -19 7 -19 1z"/>
<path d="M575 165 c-4 -11 -13 -37 -20 -57 -12 -35 -2 -57 11 -23 4 8 15 15
25 15 23 0 52 42 43 64 -7 19 -20 21 -30 5 -4 -8 -9 -7 -15 2 -6 10 -9 9 -14
-6z m45 -20 c0 -24 -24 -44 -37 -32 -6 6 23 57 32 57 3 0 5 -11 5 -25z"/>
<path d="M760 130 c-8 -5 -10 -10 -5 -10 6 0 17 5 25 10 8 5 11 10 5 10 -5 0
-17 -5 -25 -10z"/>
<path d="M508 63 c7 -3 16 -2 19 1 4 3 -2 6 -13 5 -11 0 -14 -3 -6 -6z"/>
</g>
</svg>
